<svg width="19" height="24" viewBox="0 0 19 24" fill="none" xmlns="http://www.w3.org/2000/svg">
<g id="Vector">
<path d="M11.426 1.64259C11.3196 1.64259 11.2345 1.56056 11.2228 1.46037C11.1272 0.638944 10.3923 0 9.50004 0C8.60774 0 7.87291 0.638944 7.77725 1.46037C7.76558 1.56056 7.68048 1.64259 7.57411 1.64259H4.87782C4.77145 1.64259 4.68523 1.7243 4.68523 1.82509V3.28517C4.68523 3.38597 4.77145 3.46768 4.87782 3.46768H14.1223C14.2286 3.46768 14.3149 3.38597 14.3149 3.28517V1.82509C14.3149 1.7243 14.2286 1.64259 14.1223 1.64259H11.426Z" fill="#999999"/>
<path d="M9.76636 16.4933C9.91052 16.4749 10.0422 16.4434 10.1613 16.3988C10.367 16.3227 10.5262 16.217 10.639 16.0815C10.7519 15.9461 10.8083 15.7904 10.8083 15.6145C10.8083 15.4506 10.7569 15.3127 10.6541 15.201C10.5538 15.0894 10.4058 14.9943 10.2102 14.9159C10.0817 14.8637 9.93375 14.8146 9.76636 14.7688V16.4933Z" fill="#999999"/>
<path d="M9.14946 13.2408V11.6134C9.01814 11.6308 8.90028 11.6599 8.79587 11.7006C8.61281 11.7695 8.47238 11.8657 8.37458 11.9893C8.27928 12.1129 8.23164 12.2531 8.23164 12.4099C8.22662 12.5406 8.25546 12.6547 8.31815 12.7521C8.38335 12.8496 8.47238 12.9339 8.58522 13.0052C8.69807 13.0741 8.82847 13.1347 8.97643 13.187C9.03266 13.206 9.09033 13.2239 9.14946 13.2408Z" fill="#999999"/>
<path fill-rule="evenodd" clip-rule="evenodd" d="M1.79634 3.92395C1.26451 3.92395 0.833374 4.33252 0.833374 4.8365V23.0875C0.833374 23.5914 1.26451 24 1.79634 24H17.2037C17.7356 24 18.1667 23.5914 18.1667 23.0875V4.8365C18.1667 4.33252 17.7356 3.92395 17.2037 3.92395H1.79634ZM9.14946 17.7989V18.616H9.76636V17.7994C10.2639 17.7747 10.6977 17.6881 11.0679 17.5394C11.5142 17.3588 11.8553 17.1058 12.091 16.7802C12.3292 16.4522 12.4496 16.0649 12.4521 15.6181C12.4496 15.3139 12.3907 15.0442 12.2753 14.8089C12.1625 14.5737 12.0032 14.3693 11.7976 14.1958C11.592 14.0223 11.3487 13.8762 11.0679 13.7574C10.787 13.6385 10.4785 13.5435 10.1425 13.4722L9.76636 13.387V11.6108C10.0207 11.6421 10.2313 11.7159 10.3983 11.8325C10.6265 11.9917 10.7557 12.2151 10.7857 12.5026H12.3468C12.3393 12.0677 12.2164 11.6851 11.9782 11.3548C11.7399 11.0245 11.4064 10.7666 10.9776 10.5813C10.6239 10.4275 10.2202 10.3375 9.76636 10.3113V9.49049H9.14946V10.3144C8.71981 10.3442 8.32861 10.4331 7.97585 10.5813C7.53449 10.7666 7.18717 11.0245 6.93389 11.3548C6.68312 11.6851 6.55899 12.0713 6.5615 12.5133C6.55899 13.0528 6.74581 13.4817 7.12197 13.8001C7.49813 14.1186 8.01096 14.3527 8.66046 14.5024L9.14946 14.6187V16.497C8.98348 16.4783 8.82926 16.4432 8.68679 16.3916C8.46611 16.3085 8.28931 16.1861 8.15641 16.0245C8.026 15.8605 7.95203 15.6561 7.93447 15.4114H6.35837C6.37091 15.9365 6.50507 16.3774 6.76086 16.7338C7.01916 17.0879 7.37776 17.3553 7.83667 17.5359C8.21913 17.6856 8.65673 17.7732 9.14946 17.7989Z" fill="#999999"/>
</g>
</svg>
