<svg width="70" height="70" viewBox="0 0 70 70" fill="none" xmlns="http://www.w3.org/2000/svg">
<path id="Subtract" fill-rule="evenodd" clip-rule="evenodd" d="M35 70C54.33 70 70 54.33 70 35C70 15.67 54.33 0 35 0C15.67 0 0 15.67 0 35C0 54.33 15.67 70 35 70ZM33.8333 21.5833C33.8333 26.4158 31.0911 30.3333 27.7083 30.3333C24.3256 30.3333 21.5833 26.4158 21.5833 21.5833C21.5833 16.7508 24.3256 12.8333 27.7083 12.8333C31.0911 12.8333 33.8333 16.7508 33.8333 21.5833ZM23.3333 36.1667C23.3333 40.677 20.5911 44.3333 17.2083 44.3333C13.8256 44.3333 11.0833 40.677 11.0833 36.1667C11.0833 31.6563 13.8256 28 17.2083 28C20.5911 28 23.3333 31.6563 23.3333 36.1667ZM42 31.5C45.5438 31.5 48.4167 27.3213 48.4167 22.1667C48.4167 17.012 45.5438 12.8333 42 12.8333C38.4562 12.8333 35.5833 17.012 35.5833 22.1667C35.5833 27.3213 38.4562 31.5 42 31.5ZM58.0928 38.2325C55.9694 42.8618 51.6368 45.4167 48.4157 43.9392C45.1946 42.4617 44.3047 37.5112 46.4281 32.882C48.5515 28.2527 52.8841 25.6978 56.1053 27.1753C59.3264 28.6528 60.2163 33.6033 58.0928 38.2325ZM20.3987 54.5798C22.6219 57.1578 28.7153 56.9119 33.6607 53.9165C33.9629 54.164 34.3106 54.3744 34.7083 54.5419C40.25 56.5835 46.3796 57.8126 48.6734 54.8479C50.9672 51.8832 49.3295 46.7741 45.0155 43.4363C43.8531 42.5369 42.8004 41.5528 41.8379 40.653C40.9454 39.8186 40.1304 39.0567 39.3772 38.5019C39.2841 38.3988 39.1861 38.3008 39.0833 38.2082C36.5136 35.2283 30.2531 36.6736 25.0915 41.1248C19.9298 45.576 17.8289 51.5999 20.3987 54.5798Z" fill="#30BDF4"/>
</svg>
