<svg width="25" height="25" viewBox="0 0 25 25" fill="none" xmlns="http://www.w3.org/2000/svg">
<path id="Union" fill-rule="evenodd" clip-rule="evenodd" d="M0.611898 12.5732C0.462701 12.4264 0.462701 12.1884 0.611898 12.0415L12.2282 0.610118C12.3049 0.534618 12.4062 0.497942 12.5067 0.500089C12.6028 0.50133 12.6985 0.538025 12.7718 0.610174L24.3881 12.0416C24.5373 12.1884 24.5373 12.4265 24.3881 12.5733L23.5777 13.3708C23.4285 13.5177 23.1866 13.5177 23.0374 13.3708L21.4893 11.8474C21.369 11.729 21.1632 11.8129 21.1632 11.9804V23.5601C21.1632 24.0792 20.7356 24.5 20.2081 24.5H15.6236C15.5181 24.5 15.4325 24.4158 15.4325 24.312V18.8605C15.4325 17.3032 14.1497 16.0408 12.5672 16.0408C10.9847 16.0408 9.70186 17.3032 9.70186 18.8605V24.312C9.70186 24.4158 9.61633 24.5 9.51083 24.5H4.9263C4.39881 24.5 3.97119 24.0792 3.97119 23.5601V11.848C3.97119 11.6805 3.76543 11.5967 3.6451 11.7151L1.96263 13.3708C1.81343 13.5176 1.57154 13.5176 1.42234 13.3708L0.611898 12.5732ZM8.71397 10.5571C9.17658 10.5571 9.56236 10.8812 9.65028 11.3116C9.67107 11.4134 9.75461 11.4984 9.86011 11.4984H15.2087C15.3142 11.4984 15.3978 11.4134 15.4186 11.3116C15.5065 10.8812 15.8923 10.5571 16.3549 10.5571C16.8824 10.5571 17.31 10.9785 17.31 11.4984C17.31 11.7165 17.2348 11.9172 17.1085 12.0768C17.0304 12.1755 17.0304 12.3275 17.1085 12.4262C17.2348 12.5858 17.31 12.7865 17.31 13.0045C17.31 13.5244 16.8824 13.9459 16.3549 13.9459C15.8923 13.9459 15.5065 13.6217 15.4186 13.1913C15.3978 13.0896 15.3142 13.0045 15.2087 13.0045H9.86011C9.75461 13.0045 9.67107 13.0896 9.65028 13.1913C9.56236 13.6217 9.17658 13.9459 8.71397 13.9459C8.18648 13.9459 7.75886 13.5244 7.75886 13.0045C7.75886 12.7865 7.83408 12.5858 7.96035 12.4262C8.03844 12.3275 8.03844 12.1755 7.96035 12.0768C7.83408 11.9172 7.75886 11.7165 7.75886 11.4984C7.75886 10.9785 8.18648 10.5571 8.71397 10.5571Z" fill="#099BD4"/>
</svg>
